<svg width="15" height="15" viewBox="0 0 15 15" fill="none" xmlns="http://www.w3.org/2000/svg">
<path d="M7.5 9.375C8.53553 9.375 9.375 8.53553 9.375 7.5C9.375 6.46447 8.53553 5.625 7.5 5.625C6.46447 5.625 5.625 6.46447 5.625 7.5C5.625 8.53553 6.46447 9.375 7.5 9.375Z" fill="#110A45"/>
<path d="M11.567 4.13613C10.2861 3.25781 8.91533 2.8125 7.49297 2.8125C6.21299 2.8125 4.96523 3.19336 3.78428 3.93984C2.59336 4.69424 1.42588 6.06445 0.46875 7.5C1.24277 8.78906 2.30156 10.1145 3.4043 10.8744C4.66934 11.7457 6.04482 12.1875 7.49297 12.1875C8.92852 12.1875 10.3011 11.746 11.574 10.8753C12.6946 10.1074 13.761 8.78379 14.5312 7.5C13.7584 6.22764 12.6885 4.90547 11.567 4.13613ZM7.5 10.3125C6.94374 10.3125 6.39997 10.1475 5.93746 9.83851C5.47495 9.52947 5.11446 9.09021 4.90159 8.5763C4.68872 8.06238 4.63302 7.49688 4.74154 6.95131C4.85006 6.40574 5.11793 5.9046 5.51126 5.51126C5.9046 5.11793 6.40574 4.85006 6.95131 4.74154C7.49688 4.63302 8.06238 4.68872 8.5763 4.90159C9.09021 5.11446 9.52947 5.47495 9.83851 5.93746C10.1475 6.39997 10.3125 6.94374 10.3125 7.5C10.3116 8.24566 10.0151 8.96053 9.4878 9.4878C8.96053 10.0151 8.24566 10.3116 7.5 10.3125Z" fill="#110A45"/>
</svg>
