<svg width="248" height="536" viewBox="0 0 248 536" fill="none" xmlns="http://www.w3.org/2000/svg">
<path d="M186.923 1.01401H218.822C234.286 1.02776 246.944 13.6521 246.944 29.0797L247 506.934C247 522.363 234.341 535 218.879 535L29.1641 534.986C13.7 534.972 1.0421 522.348 1.0421 506.92L1 29.0657C1 29.0657 1 29.0657 1 29.0656C1.00005 13.6371 13.6585 1 29.1212 1H52.6567C53.4535 1 54.0986 1.64668 54.0986 2.43732V2.45133C54.0986 12.3485 62.2109 20.4425 72.1222 20.4425H167.457C177.369 20.4425 185.481 12.3485 185.481 2.45133C185.481 1.66067 186.126 1.01401 186.923 1.01401Z" fill="#F7F9FF" stroke="#E0E6F6" stroke-width="2"/>
</svg>
